<?xml version="1.0" encoding="UTF-8" standalone="no"?>
<!-- Created with Inkscape (http://www.inkscape.org/) -->

<svg
   xmlns:dc="http://purl.org/dc/elements/1.1/"
   xmlns:cc="http://creativecommons.org/ns#"
   xmlns:rdf="http://www.w3.org/1999/02/22-rdf-syntax-ns#"
   xmlns:svg="http://www.w3.org/2000/svg"
   xmlns="http://www.w3.org/2000/svg"
   xmlns:sodipodi="http://sodipodi.sourceforge.net/DTD/sodipodi-0.dtd"
   xmlns:inkscape="http://www.inkscape.org/namespaces/inkscape"
   id="svg6194"
   version="1.1"
   inkscape:version="0.48.4 r9939"
   width="1013.75"
   height="757.5"
   xml:space="preserve"
   sodipodi:docname="top10_fund_redaction.pdf"><metadata
     id="metadata6200"><rdf:RDF><cc:Work
         rdf:about=""><dc:format>image/svg+xml</dc:format><dc:type
           rdf:resource="http://purl.org/dc/dcmitype/StillImage" /><dc:title></dc:title></cc:Work></rdf:RDF></metadata><defs
     id="defs6198"><clipPath
       clipPathUnits="userSpaceOnUse"
       id="clipPath6212"><path
         d="m 0,0 811.5,0 0,606.75 L 0,606.75 0,0 z"
         id="path6214" /></clipPath><clipPath
       clipPathUnits="userSpaceOnUse"
       id="clipPath6220"><path
         d="m 0,0 811.5,0 0,606.75 L 0,606.75 0,0 z"
         id="path6222" /></clipPath></defs><sodipodi:namedview
     pagecolor="#ffffff"
     bordercolor="#666666"
     borderopacity="1"
     objecttolerance="10"
     gridtolerance="10"
     guidetolerance="10"
     inkscape:pageopacity="0"
     inkscape:pageshadow="2"
     inkscape:window-width="1366"
     inkscape:window-height="706"
     id="namedview6196"
     showgrid="false"
     inkscape:zoom="0.62310231"
     inkscape:cx="506.875"
     inkscape:cy="378.75"
     inkscape:window-x="-8"
     inkscape:window-y="-8"
     inkscape:window-maximized="1"
     inkscape:current-layer="g6202" /><g
     id="g6202"
     inkscape:groupmode="layer"
     inkscape:label="top10_fund_redaction"
     transform="matrix(1.25,0,0,-1.25,0,757.5)"><g
       id="g6208"><g
         id="g6210"
         clip-path="url(#clipPath6212)" /></g><g
       id="g6705"
       transform="translate(28.245763,8.9872881)"><path
         inkscape:connector-curvature="0"
         id="path6228"
         style="fill:none;stroke:#a9a9a9;stroke-width:3;stroke-linecap:round;stroke-linejoin:round;stroke-miterlimit:10;stroke-opacity:1;stroke-dasharray:none"
         d="m 282.72,301.07 204.27,8.51" /><path
         inkscape:connector-curvature="0"
         id="path6230"
         style="fill:none;stroke:#a9a9a9;stroke-width:0.75;stroke-linecap:round;stroke-linejoin:round;stroke-miterlimit:10;stroke-opacity:1;stroke-dasharray:none"
         d="m 244.77,334.08 -7.21,73.66" /><path
         inkscape:connector-curvature="0"
         id="path6232"
         style="fill:none;stroke:#a9a9a9;stroke-width:2.25;stroke-linecap:round;stroke-linejoin:round;stroke-miterlimit:10;stroke-opacity:1;stroke-dasharray:none"
         d="m 249.86,265.07 5.88,-118.21" /><path
         inkscape:connector-curvature="0"
         id="path6234"
         style="fill:none;stroke:#a9a9a9;stroke-width:6;stroke-linecap:round;stroke-linejoin:round;stroke-miterlimit:10;stroke-opacity:1;stroke-dasharray:none"
         d="m 280.4,287.09 65.51,-25.46" /><path
         inkscape:connector-curvature="0"
         id="path6236"
         style="fill:none;stroke:#a9a9a9;stroke-width:0.75;stroke-linecap:round;stroke-linejoin:round;stroke-miterlimit:10;stroke-opacity:1;stroke-dasharray:none"
         d="M 274.12,322.49 456.4,482.84" /><path
         inkscape:connector-curvature="0"
         id="path6238"
         style="fill:none;stroke:#a9a9a9;stroke-width:5.25;stroke-linecap:round;stroke-linejoin:round;stroke-miterlimit:10;stroke-opacity:1;stroke-dasharray:none"
         d="m 276.45,319.54 92.26,64.89" /><path
         inkscape:connector-curvature="0"
         id="path6240"
         style="fill:none;stroke:#a9a9a9;stroke-width:1.5;stroke-linecap:round;stroke-linejoin:round;stroke-miterlimit:10;stroke-opacity:1;stroke-dasharray:none"
         d="M 281.59,290.74 590.85,208.52" /><path
         inkscape:connector-curvature="0"
         id="path6242"
         style="fill:none;stroke:#a9a9a9;stroke-width:2.25;stroke-linecap:round;stroke-linejoin:round;stroke-miterlimit:10;stroke-opacity:1;stroke-dasharray:none"
         d="M 281.04,310.39 589.2,411.12" /><path
         inkscape:connector-curvature="0"
         id="path6244"
         style="fill:none;stroke:#a9a9a9;stroke-width:3.75;stroke-linecap:round;stroke-linejoin:round;stroke-miterlimit:10;stroke-opacity:1;stroke-dasharray:none"
         d="M 277.61,281.49 443.31,179.48" /><path
         inkscape:connector-curvature="0"
         id="path6246"
         style="fill:none;stroke:#a9a9a9;stroke-width:1.5;stroke-linecap:round;stroke-linejoin:round;stroke-miterlimit:10;stroke-opacity:1;stroke-dasharray:none"
         d="M 489.36,322.4 257.51,422.31" /><path
         inkscape:connector-curvature="0"
         id="path6248"
         style="fill:none;stroke:#a9a9a9;stroke-width:1.5;stroke-linecap:round;stroke-linejoin:round;stroke-miterlimit:10;stroke-opacity:1;stroke-dasharray:none"
         d="M 492.42,293.77 274.11,137.97" /><path
         inkscape:connector-curvature="0"
         id="path6250"
         style="fill:none;stroke:#a9a9a9;stroke-width:3.75;stroke-linecap:round;stroke-linejoin:round;stroke-miterlimit:10;stroke-opacity:1;stroke-dasharray:none"
         d="m 488.86,300.44 -103.22,-39" /><path
         inkscape:connector-curvature="0"
         id="path6252"
         style="fill:none;stroke:#a9a9a9;stroke-width:0.75;stroke-linecap:round;stroke-linejoin:round;stroke-miterlimit:10;stroke-opacity:1;stroke-dasharray:none"
         d="M 509.28,339.26 475.42,476.87" /><path
         inkscape:connector-curvature="0"
         id="path6254"
         style="fill:none;stroke:#a9a9a9;stroke-width:1.5;stroke-linecap:round;stroke-linejoin:round;stroke-miterlimit:10;stroke-opacity:1;stroke-dasharray:none"
         d="m 491.29,326.11 -96.55,59.15" /><path
         inkscape:connector-curvature="0"
         id="path6256"
         style="fill:none;stroke:#a9a9a9;stroke-width:1.5;stroke-linecap:round;stroke-linejoin:round;stroke-miterlimit:10;stroke-opacity:1;stroke-dasharray:none"
         d="m 535.1,288.33 60.54,-72.29" /><path
         inkscape:connector-curvature="0"
         id="path6258"
         style="fill:none;stroke:#a9a9a9;stroke-width:1.5;stroke-linecap:round;stroke-linejoin:round;stroke-miterlimit:10;stroke-opacity:1;stroke-dasharray:none"
         d="m 534.84,333.48 58.53,71.55" /><path
         inkscape:connector-curvature="0"
         id="path6260"
         style="fill:none;stroke:#a9a9a9;stroke-width:1.5;stroke-linecap:round;stroke-linejoin:round;stroke-miterlimit:10;stroke-opacity:1;stroke-dasharray:none"
         d="M 504.09,284.14 458.35,184.05" /><path
         inkscape:connector-curvature="0"
         id="path6262"
         style="fill:none;stroke:#a9a9a9;stroke-width:1.5;stroke-linecap:round;stroke-linejoin:round;stroke-miterlimit:10;stroke-opacity:1;stroke-dasharray:none"
         d="M 236.9,407.69 255.3,146.84" /><path
         inkscape:connector-curvature="0"
         id="path6264"
         style="fill:none;stroke:#a9a9a9;stroke-width:2.25;stroke-linecap:round;stroke-linejoin:round;stroke-miterlimit:10;stroke-opacity:1;stroke-dasharray:none"
         d="M 249.56,412.33 353.15,271.08" /><path
         inkscape:connector-curvature="0"
         id="path6266"
         style="fill:none;stroke:#a9a9a9;stroke-width:0.75;stroke-linecap:round;stroke-linejoin:round;stroke-miterlimit:10;stroke-opacity:1;stroke-dasharray:none"
         d="m 258.65,438.26 193.62,52.27" /><path
         inkscape:connector-curvature="0"
         id="path6268"
         style="fill:none;stroke:#a9a9a9;stroke-width:2.25;stroke-linecap:round;stroke-linejoin:round;stroke-miterlimit:10;stroke-opacity:1;stroke-dasharray:none"
         d="M 258.69,425.74 366.38,397.37" /><path
         inkscape:connector-curvature="0"
         id="path6270"
         style="fill:none;stroke:#a9a9a9;stroke-width:1.5;stroke-linecap:round;stroke-linejoin:round;stroke-miterlimit:10;stroke-opacity:1;stroke-dasharray:none"
         d="M 259.47,430.82 588.56,415.8" /><path
         inkscape:connector-curvature="0"
         id="path6272"
         style="fill:none;stroke:#a9a9a9;stroke-width:0.75;stroke-linecap:round;stroke-linejoin:round;stroke-miterlimit:10;stroke-opacity:1;stroke-dasharray:none"
         d="M 250.86,413.35 445.76,182.33" /><path
         inkscape:connector-curvature="0"
         id="path6274"
         style="fill:none;stroke:#a9a9a9;stroke-width:3;stroke-linecap:round;stroke-linejoin:round;stroke-miterlimit:10;stroke-opacity:1;stroke-dasharray:none"
         d="m 270.56,141.83 81.41,95.88" /><path
         inkscape:connector-curvature="0"
         id="path6276"
         style="fill:none;stroke:#a9a9a9;stroke-width:3.75;stroke-linecap:round;stroke-linejoin:round;stroke-miterlimit:10;stroke-opacity:1;stroke-dasharray:none"
         d="M 265.77,144.9 374.88,379.27" /><path
         inkscape:connector-curvature="0"
         id="path6278"
         style="fill:none;stroke:#a9a9a9;stroke-width:0.75;stroke-linecap:round;stroke-linejoin:round;stroke-miterlimit:10;stroke-opacity:1;stroke-dasharray:none"
         d="m 277.54,130.33 313.18,71.13" /><path
         inkscape:connector-curvature="0"
         id="path6280"
         style="fill:none;stroke:#a9a9a9;stroke-width:1.5;stroke-linecap:round;stroke-linejoin:round;stroke-miterlimit:10;stroke-opacity:1;stroke-dasharray:none"
         d="m 277.47,130.62 164.41,39.84" /><path
         inkscape:connector-curvature="0"
         id="path6282"
         style="fill:none;stroke:#a9a9a9;stroke-width:3;stroke-linecap:round;stroke-linejoin:round;stroke-miterlimit:10;stroke-opacity:1;stroke-dasharray:none"
         d="m 374.22,273.43 88.94,204.48" /><path
         inkscape:connector-curvature="0"
         id="path6284"
         style="fill:none;stroke:#a9a9a9;stroke-width:7.5;stroke-linecap:round;stroke-linejoin:round;stroke-miterlimit:10;stroke-opacity:1;stroke-dasharray:none"
         d="m 368.12,275.06 11.59,102.85" /><path
         inkscape:connector-curvature="0"
         id="path6286"
         style="fill:none;stroke:#a9a9a9;stroke-width:1.5;stroke-linecap:round;stroke-linejoin:round;stroke-miterlimit:10;stroke-opacity:1;stroke-dasharray:none"
         d="M 386.57,249.64 590.66,207.7" /><path
         inkscape:connector-curvature="0"
         id="path6288"
         style="fill:none;stroke:#a9a9a9;stroke-width:3;stroke-linecap:round;stroke-linejoin:round;stroke-miterlimit:10;stroke-opacity:1;stroke-dasharray:none"
         d="M 383.3,265.93 590.84,407.79" /><path
         inkscape:connector-curvature="0"
         id="path6290"
         style="fill:none;stroke:#a9a9a9;stroke-width:3.75;stroke-linecap:round;stroke-linejoin:round;stroke-miterlimit:10;stroke-opacity:1;stroke-dasharray:none"
         d="m 381.39,239.52 63.29,-58.23" /><path
         inkscape:connector-curvature="0"
         id="path6292"
         style="fill:none;stroke:#a9a9a9;stroke-width:3;stroke-linecap:round;stroke-linejoin:round;stroke-miterlimit:10;stroke-opacity:1;stroke-dasharray:none"
         d="M 458.17,481.07 391.71,405.12" /><path
         inkscape:connector-curvature="0"
         id="path6294"
         style="fill:none;stroke:#a9a9a9;stroke-width:0.75;stroke-linecap:round;stroke-linejoin:round;stroke-miterlimit:10;stroke-opacity:1;stroke-dasharray:none"
         d="M 478.89,478.08 598.92,218.13" /><path
         inkscape:connector-curvature="0"
         id="path6296"
         style="fill:none;stroke:#a9a9a9;stroke-width:2.25;stroke-linecap:round;stroke-linejoin:round;stroke-miterlimit:10;stroke-opacity:1;stroke-dasharray:none"
         d="M 487.21,485.48 590.49,422.07" /><path
         inkscape:connector-curvature="0"
         id="path6298"
         style="fill:none;stroke:#a9a9a9;stroke-width:2.25;stroke-linecap:round;stroke-linejoin:round;stroke-miterlimit:10;stroke-opacity:1;stroke-dasharray:none"
         d="M 469.79,476.34 454.05,185.11" /><path
         inkscape:connector-curvature="0"
         id="path6300"
         style="fill:none;stroke:#a9a9a9;stroke-width:1.5;stroke-linecap:round;stroke-linejoin:round;stroke-miterlimit:10;stroke-opacity:1;stroke-dasharray:none"
         d="M 393.36,383.35 593.83,214.24" /><path
         inkscape:connector-curvature="0"
         id="path6302"
         style="fill:none;stroke:#a9a9a9;stroke-width:3;stroke-linecap:round;stroke-linejoin:round;stroke-miterlimit:10;stroke-opacity:1;stroke-dasharray:none"
         d="m 396.96,394.93 191.65,18.98" /><path
         inkscape:connector-curvature="0"
         id="path6304"
         style="fill:none;stroke:#a9a9a9;stroke-width:3;stroke-linecap:round;stroke-linejoin:round;stroke-miterlimit:10;stroke-opacity:1;stroke-dasharray:none"
         d="M 386.29,378.59 449.73,184.54" /><path
         inkscape:connector-curvature="0"
         id="path6306"
         style="fill:none;stroke:#a9a9a9;stroke-width:0.75;stroke-linecap:round;stroke-linejoin:round;stroke-miterlimit:10;stroke-opacity:1;stroke-dasharray:none"
         d="M 604.87,219.48 601.9,402.06" /><path
         inkscape:connector-curvature="0"
         id="path6308"
         style="fill:none;stroke:#a9a9a9;stroke-width:0.75;stroke-linecap:round;stroke-linejoin:round;stroke-miterlimit:10;stroke-opacity:1;stroke-dasharray:none"
         d="M 590.66,201.73 465.04,175.67" /><path
         inkscape:connector-curvature="0"
         id="path6310"
         style="fill:none;stroke:#a9a9a9;stroke-width:2.25;stroke-linecap:round;stroke-linejoin:round;stroke-miterlimit:10;stroke-opacity:1;stroke-dasharray:none"
         d="M 594.82,404 459.62,183.38" /><path
         inkscape:connector-curvature="0"
         id="path6312"
         style="fill:#ccccff;fill-opacity:1;fill-rule:nonzero;stroke:none"
         d="m 213.53,299.63 c 0,19.04 15.57,34.61 34.61,34.61 19.03,0 34.61,-15.57 34.61,-34.61 0,-19.03 -15.58,-34.61 -34.61,-34.61 -19.04,0 -34.61,15.58 -34.61,34.61" /><path
         inkscape:connector-curvature="0"
         id="path6314"
         style="fill:#ccccff;fill-opacity:1;fill-rule:nonzero;stroke:none"
         d="m 486.97,310.8 c 0,16.12 13.19,29.31 29.31,29.31 16.12,0 29.31,-13.19 29.31,-29.31 0,-16.12 -13.19,-29.31 -29.31,-29.31 -16.12,0 -29.31,13.19 -29.31,29.31" /><path
         inkscape:connector-curvature="0"
         id="path6316"
         style="fill:#ccccff;fill-opacity:1;fill-rule:nonzero;stroke:none"
         d="m 210.89,431.93 c 0,13.36 10.93,24.3 24.3,24.3 13.36,0 24.3,-10.94 24.3,-24.3 0,-13.37 -10.94,-24.3 -24.3,-24.3 -13.37,0 -24.3,10.93 -24.3,24.3" /><path
         inkscape:connector-curvature="0"
         id="path6318"
         style="fill:#ccccff;fill-opacity:1;fill-rule:nonzero;stroke:none"
         d="m 235.52,125.61 c 0,11.7 9.57,21.28 21.27,21.28 11.71,0 21.28,-9.58 21.28,-21.28 0,-11.7 -9.57,-21.27 -21.28,-21.27 -11.7,0 -21.27,9.57 -21.27,21.27" /><path
         inkscape:connector-curvature="0"
         id="path6320"
         style="fill:#ccccff;fill-opacity:1;fill-rule:nonzero;stroke:none"
         d="m 344.46,253.92 c 0,11.7 9.57,21.28 21.27,21.28 11.7,0 21.28,-9.58 21.28,-21.28 0,-11.7 -9.58,-21.27 -21.28,-21.27 -11.7,0 -21.27,9.57 -21.27,21.27" /><path
         inkscape:connector-curvature="0"
         id="path6322"
         style="fill:#ccccff;fill-opacity:1;fill-rule:nonzero;stroke:none"
         d="m 451.61,495.54 c 0,10.57 8.65,19.22 19.22,19.22 10.57,0 19.22,-8.65 19.22,-19.22 0,-10.58 -8.65,-19.23 -19.22,-19.23 -10.57,0 -19.22,8.65 -19.22,19.23" /><path
         inkscape:connector-curvature="0"
         id="path6324"
         style="fill:#ccccff;fill-opacity:1;fill-rule:nonzero;stroke:none"
         d="m 365.87,393.4 c 0,8.57 7.01,15.58 15.58,15.58 8.57,0 15.58,-7.01 15.58,-15.58 0,-8.57 -7.01,-15.59 -15.58,-15.59 -8.57,0 -15.58,7.02 -15.58,15.59" /><path
         inkscape:connector-curvature="0"
         id="path6326"
         style="fill:#ccccff;fill-opacity:1;fill-rule:nonzero;stroke:none"
         d="m 590.36,204.73 c 0,8.12 6.64,14.75 14.75,14.75 8.11,0 14.75,-6.63 14.75,-14.75 0,-8.11 -6.64,-14.75 -14.75,-14.75 -8.11,0 -14.75,6.64 -14.75,14.75" /><path
         inkscape:connector-curvature="0"
         id="path6328"
         style="fill:#ccccff;fill-opacity:1;fill-rule:nonzero;stroke:none"
         d="m 588.55,415.2 c 0,7.23 5.91,13.14 13.14,13.14 7.22,0 13.14,-5.91 13.14,-13.14 0,-7.23 -5.92,-13.14 -13.14,-13.14 -7.23,0 -13.14,5.91 -13.14,13.14" /><path
         inkscape:connector-curvature="0"
         id="path6330"
         style="fill:#ccccff;fill-opacity:1;fill-rule:nonzero;stroke:none"
         d="m 441.54,173.26 c 0,6.52 5.35,11.87 11.87,11.87 6.53,0 11.87,-5.35 11.87,-11.87 0,-6.53 -5.34,-11.87 -11.87,-11.87 -6.52,0 -11.87,5.34 -11.87,11.87" /><text
         y="-297.07001"
         x="233.19"
         id="text6332"
         transform="scale(1,-1)"><tspan
           id="tspan6334"
           sodipodi:role="line"
           y="-297.07001"
           x="233.19 240.472 243.53 249.03 252.088 257.58801"
           style="font-size:11px;font-variant:normal;font-weight:normal;writing-mode:lr-tb;fill:#000000;fill-opacity:1;fill-rule:nonzero;stroke:none;font-family:Times New Roman;-inkscape-font-specification:Times-Roman">Viking</tspan></text>
<text
         y="-308.23999"
         x="493.17001"
         id="text6336"
         transform="scale(1,-1)"><tspan
           id="tspan6338"
           sodipodi:role="line"
           y="-308.23999"
           x="493.17001 501.112 504.17001 509.67001 515.16998 518.61298 521.67102 526.55499 529.61298 535.11298"
           style="font-size:11px;font-variant:normal;font-weight:normal;writing-mode:lr-tb;fill:#000000;fill-opacity:1;fill-rule:nonzero;stroke:none;font-family:Times New Roman;-inkscape-font-specification:Times-Roman">Highfields</tspan></text>
<text
         y="-428.23001"
         x="219"
         id="text6340"
         transform="scale(1,-1)"><tspan
           id="tspan6342"
           sodipodi:role="line"
           y="-428.23001"
           x="219 225.72099 230.605 233.66299 236.72101 242.22101 247.72101"
           style="font-size:11px;font-variant:normal;font-weight:normal;writing-mode:lr-tb;fill:#000000;fill-opacity:1;fill-rule:nonzero;stroke:none;font-family:Times New Roman;-inkscape-font-specification:Times-Roman">Valinor</tspan></text>
<text
         y="-121.92"
         x="231.58"
         id="text6344"
         transform="scale(1,-1)"><tspan
           id="tspan6346"
           sodipodi:role="line"
           y="-121.92"
           x="231.58 238.30099 243.80099 246.85899 250.522 256.022 258.772 264.888 270.388 273.44601 278.94601"
           style="font-size:11px;font-variant:normal;font-weight:normal;writing-mode:lr-tb;fill:#000000;fill-opacity:1;fill-rule:nonzero;stroke:none;font-family:Times New Roman;-inkscape-font-specification:Times-Roman">Third.Point</tspan></text>
<text
         y="-250.28"
         x="350.14999"
         id="text6348"
         transform="scale(1,-1)"><tspan
           id="tspan6350"
           sodipodi:role="line"
           y="-250.28"
           x="350.14999 357.487 362.987 367.871 370.92899 376.42899"
           style="font-size:11px;font-variant:normal;font-weight:normal;writing-mode:lr-tb;fill:#000000;fill-opacity:1;fill-rule:nonzero;stroke:none;font-family:Times New Roman;-inkscape-font-specification:Times-Roman">Coatue</tspan></text>
<text
         y="-491.89001"
         x="458.29999"
         id="text6352"
         transform="scale(1,-1)"><tspan
           id="tspan6354"
           sodipodi:role="line"
           y="-491.89001"
           x="458.29999 464.41599 469.29999 474.79999 480.29999"
           style="font-size:11px;font-variant:normal;font-weight:normal;writing-mode:lr-tb;fill:#000000;fill-opacity:1;fill-rule:nonzero;stroke:none;font-family:Times New Roman;-inkscape-font-specification:Times-Roman">Scout</tspan></text>
<text
         y="-389.76001"
         x="363.42001"
         id="text6356"
         transform="scale(1,-1)"><tspan
           id="tspan6358"
           sodipodi:role="line"
           y="-389.76001"
           x="363.42001 370.75699 376.25699 381.75699 386.64099 389.69901 395.19901"
           style="font-size:11px;font-variant:normal;font-weight:normal;writing-mode:lr-tb;fill:#000000;fill-opacity:1;fill-rule:nonzero;stroke:none;font-family:Times New Roman;-inkscape-font-specification:Times-Roman">Conatus</tspan></text>
<text
         y="-202.17"
         x="585.85999"
         id="text6360"
         transform="scale(1,-1)"><tspan
           id="tspan6362"
           sodipodi:role="line"
           y="-202.17"
           x="585.85999 593.802 596.85999 602.35999 607.85999 610.91803 613.97601 619.47601"
           style="font-size:11px;font-variant:normal;font-weight:normal;writing-mode:lr-tb;fill:#000000;fill-opacity:1;fill-rule:nonzero;stroke:none;font-family:Times New Roman;-inkscape-font-specification:Times-Roman">Highline</tspan></text>
<text
         y="-411.56"
         x="590.08002"
         id="text6364"
         transform="scale(1,-1)"><tspan
           id="tspan6366"
           sodipodi:role="line"
           y="-411.56"
           x="590.08002 598.02197 605.96399"
           style="font-size:11px;font-variant:normal;font-weight:normal;writing-mode:lr-tb;fill:#000000;fill-opacity:1;fill-rule:nonzero;stroke:none;font-family:Times New Roman;-inkscape-font-specification:Times-Roman">HHR</tspan></text>
<text
         y="-169.55"
         x="430.79999"
         id="text6368"
         transform="scale(1,-1)"><tspan
           id="tspan6370"
           sodipodi:role="line"
           y="-169.55"
           x="430.79999 438.13699 441.79999 447.29999 452.79999 458.29999 462.57901 465.63699 471.13699"
           style="font-size:11px;font-variant:normal;font-weight:normal;writing-mode:lr-tb;fill:#000000;fill-opacity:1;fill-rule:nonzero;stroke:none;font-family:Times New Roman;-inkscape-font-specification:Times-Roman">Brookside</tspan></text>
<text
         y="-297.07001"
         x="233.19"
         id="text6372"
         transform="scale(1,-1)"><tspan
           id="tspan6374"
           sodipodi:role="line"
           y="-297.07001"
           x="233.19 240.472 243.53 249.03 252.088 257.58801"
           style="font-size:11px;font-variant:normal;font-weight:normal;writing-mode:lr-tb;fill:#000000;fill-opacity:1;fill-rule:nonzero;stroke:none;font-family:Times New Roman;-inkscape-font-specification:Times-Roman">Viking</tspan></text>
<text
         y="-308.23999"
         x="493.17001"
         id="text6376"
         transform="scale(1,-1)"><tspan
           id="tspan6378"
           sodipodi:role="line"
           y="-308.23999"
           x="493.17001 501.112 504.17001 509.67001 515.16998 518.61298 521.67102 526.55499 529.61298 535.11298"
           style="font-size:11px;font-variant:normal;font-weight:normal;writing-mode:lr-tb;fill:#000000;fill-opacity:1;fill-rule:nonzero;stroke:none;font-family:Times New Roman;-inkscape-font-specification:Times-Roman">Highfields</tspan></text>
<text
         y="-428.23001"
         x="219"
         id="text6380"
         transform="scale(1,-1)"><tspan
           id="tspan6382"
           sodipodi:role="line"
           y="-428.23001"
           x="219 225.72099 230.605 233.66299 236.72101 242.22101 247.72101"
           style="font-size:11px;font-variant:normal;font-weight:normal;writing-mode:lr-tb;fill:#000000;fill-opacity:1;fill-rule:nonzero;stroke:none;font-family:Times New Roman;-inkscape-font-specification:Times-Roman">Valinor</tspan></text>
<text
         y="-121.92"
         x="231.58"
         id="text6384"
         transform="scale(1,-1)"><tspan
           id="tspan6386"
           sodipodi:role="line"
           y="-121.92"
           x="231.58 238.30099 243.80099 246.85899 250.522 256.022 258.772 264.888 270.388 273.44601 278.94601"
           style="font-size:11px;font-variant:normal;font-weight:normal;writing-mode:lr-tb;fill:#000000;fill-opacity:1;fill-rule:nonzero;stroke:none;font-family:Times New Roman;-inkscape-font-specification:Times-Roman">Third.Point</tspan></text>
<text
         y="-250.28"
         x="350.14999"
         id="text6388"
         transform="scale(1,-1)"><tspan
           id="tspan6390"
           sodipodi:role="line"
           y="-250.28"
           x="350.14999 357.487 362.987 367.871 370.92899 376.42899"
           style="font-size:11px;font-variant:normal;font-weight:normal;writing-mode:lr-tb;fill:#000000;fill-opacity:1;fill-rule:nonzero;stroke:none;font-family:Times New Roman;-inkscape-font-specification:Times-Roman">Coatue</tspan></text>
<text
         y="-491.89001"
         x="458.29999"
         id="text6392"
         transform="scale(1,-1)"><tspan
           id="tspan6394"
           sodipodi:role="line"
           y="-491.89001"
           x="458.29999 464.41599 469.29999 474.79999 480.29999"
           style="font-size:11px;font-variant:normal;font-weight:normal;writing-mode:lr-tb;fill:#000000;fill-opacity:1;fill-rule:nonzero;stroke:none;font-family:Times New Roman;-inkscape-font-specification:Times-Roman">Scout</tspan></text>
<text
         y="-389.76001"
         x="363.42001"
         id="text6396"
         transform="scale(1,-1)"><tspan
           id="tspan6398"
           sodipodi:role="line"
           y="-389.76001"
           x="363.42001 370.75699 376.25699 381.75699 386.64099 389.69901 395.19901"
           style="font-size:11px;font-variant:normal;font-weight:normal;writing-mode:lr-tb;fill:#000000;fill-opacity:1;fill-rule:nonzero;stroke:none;font-family:Times New Roman;-inkscape-font-specification:Times-Roman">Conatus</tspan></text>
<text
         y="-202.17"
         x="585.85999"
         id="text6400"
         transform="scale(1,-1)"><tspan
           id="tspan6402"
           sodipodi:role="line"
           y="-202.17"
           x="585.85999 593.802 596.85999 602.35999 607.85999 610.91803 613.97601 619.47601"
           style="font-size:11px;font-variant:normal;font-weight:normal;writing-mode:lr-tb;fill:#000000;fill-opacity:1;fill-rule:nonzero;stroke:none;font-family:Times New Roman;-inkscape-font-specification:Times-Roman">Highline</tspan></text>
<text
         y="-411.56"
         x="590.08002"
         id="text6404"
         transform="scale(1,-1)"><tspan
           id="tspan6406"
           sodipodi:role="line"
           y="-411.56"
           x="590.08002 598.02197 605.96399"
           style="font-size:11px;font-variant:normal;font-weight:normal;writing-mode:lr-tb;fill:#000000;fill-opacity:1;fill-rule:nonzero;stroke:none;font-family:Times New Roman;-inkscape-font-specification:Times-Roman">HHR</tspan></text>
<text
         y="-169.55"
         x="430.79999"
         id="text6408"
         transform="scale(1,-1)"><tspan
           id="tspan6410"
           sodipodi:role="line"
           y="-169.55"
           x="430.79999 438.13699 441.79999 447.29999 452.79999 458.29999 462.57901 465.63699 471.13699"
           style="font-size:11px;font-variant:normal;font-weight:normal;writing-mode:lr-tb;fill:#000000;fill-opacity:1;fill-rule:nonzero;stroke:none;font-family:Times New Roman;-inkscape-font-specification:Times-Roman">Brookside</tspan></text>
<text
         y="-297.07001"
         x="233.19"
         id="text6412"
         transform="scale(1,-1)"><tspan
           id="tspan6414"
           sodipodi:role="line"
           y="-297.07001"
           x="233.19 240.472 243.53 249.03 252.088 257.58801"
           style="font-size:11px;font-variant:normal;font-weight:normal;writing-mode:lr-tb;fill:#000000;fill-opacity:1;fill-rule:nonzero;stroke:none;font-family:Times New Roman;-inkscape-font-specification:Times-Roman">Viking</tspan></text>
<text
         y="-308.23999"
         x="493.17001"
         id="text6416"
         transform="scale(1,-1)"><tspan
           id="tspan6418"
           sodipodi:role="line"
           y="-308.23999"
           x="493.17001 501.112 504.17001 509.67001 515.16998 518.61298 521.67102 526.55499 529.61298 535.11298"
           style="font-size:11px;font-variant:normal;font-weight:normal;writing-mode:lr-tb;fill:#000000;fill-opacity:1;fill-rule:nonzero;stroke:none;font-family:Times New Roman;-inkscape-font-specification:Times-Roman">Highfields</tspan></text>
<text
         y="-428.23001"
         x="219"
         id="text6420"
         transform="scale(1,-1)"><tspan
           id="tspan6422"
           sodipodi:role="line"
           y="-428.23001"
           x="219 225.72099 230.605 233.66299 236.72101 242.22101 247.72101"
           style="font-size:11px;font-variant:normal;font-weight:normal;writing-mode:lr-tb;fill:#000000;fill-opacity:1;fill-rule:nonzero;stroke:none;font-family:Times New Roman;-inkscape-font-specification:Times-Roman">Valinor</tspan></text>
<text
         y="-121.92"
         x="231.58"
         id="text6424"
         transform="scale(1,-1)"><tspan
           id="tspan6426"
           sodipodi:role="line"
           y="-121.92"
           x="231.58 238.30099 243.80099 246.85899 250.522 256.022 258.772 264.888 270.388 273.44601 278.94601"
           style="font-size:11px;font-variant:normal;font-weight:normal;writing-mode:lr-tb;fill:#000000;fill-opacity:1;fill-rule:nonzero;stroke:none;font-family:Times New Roman;-inkscape-font-specification:Times-Roman">Third.Point</tspan></text>
<text
         y="-250.28"
         x="350.14999"
         id="text6428"
         transform="scale(1,-1)"><tspan
           id="tspan6430"
           sodipodi:role="line"
           y="-250.28"
           x="350.14999 357.487 362.987 367.871 370.92899 376.42899"
           style="font-size:11px;font-variant:normal;font-weight:normal;writing-mode:lr-tb;fill:#000000;fill-opacity:1;fill-rule:nonzero;stroke:none;font-family:Times New Roman;-inkscape-font-specification:Times-Roman">Coatue</tspan></text>
<text
         y="-491.89001"
         x="458.29999"
         id="text6432"
         transform="scale(1,-1)"><tspan
           id="tspan6434"
           sodipodi:role="line"
           y="-491.89001"
           x="458.29999 464.41599 469.29999 474.79999 480.29999"
           style="font-size:11px;font-variant:normal;font-weight:normal;writing-mode:lr-tb;fill:#000000;fill-opacity:1;fill-rule:nonzero;stroke:none;font-family:Times New Roman;-inkscape-font-specification:Times-Roman">Scout</tspan></text>
<text
         y="-389.76001"
         x="363.42001"
         id="text6436"
         transform="scale(1,-1)"><tspan
           id="tspan6438"
           sodipodi:role="line"
           y="-389.76001"
           x="363.42001 370.75699 376.25699 381.75699 386.64099 389.69901 395.19901"
           style="font-size:11px;font-variant:normal;font-weight:normal;writing-mode:lr-tb;fill:#000000;fill-opacity:1;fill-rule:nonzero;stroke:none;font-family:Times New Roman;-inkscape-font-specification:Times-Roman">Conatus</tspan></text>
<text
         y="-202.17"
         x="585.85999"
         id="text6440"
         transform="scale(1,-1)"><tspan
           id="tspan6442"
           sodipodi:role="line"
           y="-202.17"
           x="585.85999 593.802 596.85999 602.35999 607.85999 610.91803 613.97601 619.47601"
           style="font-size:11px;font-variant:normal;font-weight:normal;writing-mode:lr-tb;fill:#000000;fill-opacity:1;fill-rule:nonzero;stroke:none;font-family:Times New Roman;-inkscape-font-specification:Times-Roman">Highline</tspan></text>
<text
         y="-411.56"
         x="590.08002"
         id="text6444"
         transform="scale(1,-1)"><tspan
           id="tspan6446"
           sodipodi:role="line"
           y="-411.56"
           x="590.08002 598.02197 605.96399"
           style="font-size:11px;font-variant:normal;font-weight:normal;writing-mode:lr-tb;fill:#000000;fill-opacity:1;fill-rule:nonzero;stroke:none;font-family:Times New Roman;-inkscape-font-specification:Times-Roman">HHR</tspan></text>
<text
         y="-169.55"
         x="430.79999"
         id="text6448"
         transform="scale(1,-1)"><tspan
           id="tspan6450"
           sodipodi:role="line"
           y="-169.55"
           x="430.79999 438.13699 441.79999 447.29999 452.79999 458.29999 462.57901 465.63699 471.13699"
           style="font-size:11px;font-variant:normal;font-weight:normal;writing-mode:lr-tb;fill:#000000;fill-opacity:1;fill-rule:nonzero;stroke:none;font-family:Times New Roman;-inkscape-font-specification:Times-Roman">Brookside</tspan></text>
</g><path
       d="m 26.896619,29.962027 c 0,11.7 9.579999,21.28 21.280006,21.28 11.7,0 21.27,-9.58 21.27,-21.28 0,-11.7 -9.57,-21.2699999 -21.27,-21.2699999 -11.700007,0 -21.280006,9.5699999 -21.280006,21.2699999"
       style="fill:#ccccff;fill-opacity:1;fill-rule:nonzero;stroke:none"
       id="path3769-0"
       inkscape:connector-curvature="0" /><text
       xml:space="preserve"
       style="font-size:14.39999962px;font-style:normal;font-variant:normal;font-weight:normal;font-stretch:normal;line-height:125%;letter-spacing:0px;word-spacing:0px;fill:#000000;fill-opacity:1;stroke:none;font-family:Gill Sans MT;-inkscape-font-specification:Gill Sans MT"
       x="76.952881"
       y="-28.696037"
       id="text4899"
       sodipodi:linespacing="125%"
       transform="scale(1,-1)"><tspan
         sodipodi:role="line"
         id="tspan4901"
         x="76.952881"
         y="-28.696037">Size proportional to CA Investment ($)</tspan></text>
<path
       d="m 29.103639,60.250537 0.006,0.0172 0.0373,0.0984 0.0962,0.25342 0.17691,0.45764 0.26691,0.68645 0.36313,0.92018 0.45623,1.1367 0.53382,1.31385 0.5959,1.43934 0.64245,1.51067 0.66728,1.53283 0.6797,1.50822 0.67969,1.4541 0.67349,1.37781 0.66107,1.28679 0.651759,1.19329 0.64245,1.0998 0.63935,1.01367 0.64556,0.93496 0.65176,0.8636 0.67038,0.80455 0.69521,0.75779 0.72315,0.71598 0.53072,0.48715 0.78522,0.66923 0.82867,0.64709 0.88453,0.62986 0.95282,0.61756 1.033504,0.61509 1.123515,0.61511 1.225932,0.62493 1.337664,0.6397 1.455602,0.65693 1.570436,0.67415 1.67596,0.69383 1.769068,0.70613 1.824934,0.70859 1.843555,0.69876 1.800105,0.66922 1.694582,0.62002 1.526985,0.55113 1.30042,0.46256 1.027302,0.36167 0.744871,0.2608 0.474856,0.16239 0.245186,0.0837 0.0807,0.0295 0.0062,0.002"
       style="fill:none;stroke:#a9a9a9;stroke-width:2.14551711;stroke-linecap:round;stroke-linejoin:round;stroke-miterlimit:10;stroke-opacity:1;stroke-dasharray:none"
       id="path3049-7"
       inkscape:connector-curvature="0" /><text
       xml:space="preserve"
       style="font-size:14.39999962px;font-style:normal;font-variant:normal;font-weight:normal;font-stretch:normal;line-height:125%;letter-spacing:0px;word-spacing:0px;fill:#000000;fill-opacity:1;stroke:none;font-family:Gill Sans MT;-inkscape-font-specification:Gill Sans MT"
       x="74.814842"
       y="-79.910324"
       id="text4899-0"
       sodipodi:linespacing="125%"
       transform="scale(1,-1)"><tspan
         sodipodi:role="line"
         id="tspan4901-9"
         x="74.814842"
         y="-79.910324">Thickness proportinal to number of</tspan><tspan
         sodipodi:role="line"
         x="74.814842"
         y="-61.910324"
         id="tspan4942">stock holdings in common</tspan></text>
<text
       xml:space="preserve"
       style="font-size:22.39999962px;font-style:normal;font-variant:normal;font-weight:normal;font-stretch:normal;line-height:125%;letter-spacing:0px;word-spacing:0px;fill:#000000;fill-opacity:1;stroke:none;font-family:Gill Sans MT;-inkscape-font-specification:Gill Sans MT"
       x="288.87711"
       y="-545.6568"
       id="text6701"
       sodipodi:linespacing="125%"
       transform="scale(1,-1)"><tspan
         sodipodi:role="line"
         id="tspan6703"
         x="288.87711"
         y="-545.6568">CA Top 10 L/S P-Rated Managers</tspan></text>
</g></svg>